<svg width="145" height="31" viewBox="0 0 145 31" fill="none" xmlns="http://www.w3.org/2000/svg">
<path d="M0 20.6162V28.3251C2.99409 28.3251 16.4918 28.3251 16.4918 28.3251V20.6162C16.4918 20.6162 2.99409 20.6162 0 20.6162Z" fill="url(#paint0_linear)"/>
<path d="M16.4921 28.3205C18.5402 28.3205 20.2006 26.5959 20.2006 24.4684C20.2006 22.3409 18.5402 20.6162 16.4921 20.6162C14.444 20.6162 12.7837 22.3409 12.7837 24.4684C12.7837 26.5959 14.444 28.3205 16.4921 28.3205Z" fill="#546EE8"/>
<path d="M63.0565 8.66797C66.7473 8.66797 67.6292 10.8712 67.6292 12.6163C67.6292 15.3921 66.1696 17.0227 63.3431 17.0227H57.8841V21.6581H54.3696V8.66797H63.0565ZM61.641 14.6592C62.7478 14.6592 64.0045 14.6134 64.0045 12.8682C64.0045 11.1689 62.9639 11.0315 61.9717 11.0315H57.8841V14.6592H61.641Z" fill="#243141"/>
<path d="M75.5178 10.6865C74.0582 10.6865 73.1102 11.3278 73.1102 12.1797C73.1102 12.8668 73.7055 13.2607 74.6138 13.3981L79.0102 14.1081C81.3517 14.4745 83.1419 15.3723 83.1419 17.7129C83.1419 20.0993 81.528 22.0277 76.4218 22.0277C73.2822 22.0277 69.1945 21.6384 69.1504 17.6213H73.1058C73.1278 19.3894 74.9181 19.6871 76.4218 19.6871C78.0798 19.6871 79.2042 19.2061 79.2042 18.0793C79.2042 17.0945 78.4105 16.8151 77.0171 16.609L73.8113 16.1281C71.558 15.7845 69.3929 15.1204 69.3929 12.4775C69.3929 9.61009 71.7344 8.4375 75.8 8.4375C78.4502 8.4375 82.41 8.89554 82.6304 12.5233H78.7412C78.5251 10.8468 76.9112 10.6865 75.5178 10.6865Z" fill="#243141"/>
<path d="M97.4201 11.146H88.8655V13.8301H96.9967V16.1936H88.8655V19.1801H97.5083V21.6581H85.3511V8.66797H97.4201V11.146Z" fill="#243141"/>
<path d="M103.519 8.66797V19.0656H111.385V21.6581H100.004V8.66797H103.519Z" fill="#243141"/>
<path d="M120.579 8.45996C127.52 8.45996 128.622 12.5457 128.622 15.2344C128.622 17.9232 127.515 22.0318 120.579 22.0318C113.616 22.0318 112.536 17.9232 112.536 15.2344C112.536 12.5457 113.616 8.45996 120.579 8.45996ZM120.579 19.5721C123.763 19.5721 124.887 17.2315 124.887 15.2344C124.887 13.2374 123.758 10.8968 120.579 10.8968C117.395 10.8968 116.271 13.2374 116.271 15.2344C116.271 17.2315 117.395 19.5721 120.579 19.5721Z" fill="#243141"/>
<path d="M144.999 8.66797V21.6627H141.176L134.147 12.5934H134.103V21.6627H130.699V8.66797H134.765L141.573 17.7373H141.595V8.66797H144.999Z" fill="#243141"/>
<path d="M46.6178 8.68629L42.2391 8.66797L36.5596 21.6627H40.3386L44.3601 11.4666L48.386 21.6627L52.2973 21.681L46.6178 8.68629Z" fill="#243141"/>
<path d="M20.2531 3.85216L13.8284 0C12.3336 2.6933 5.58252 14.8361 5.58252 14.8361L12.0073 18.6882C12.0117 18.6882 18.7583 6.54546 20.2531 3.85216Z" fill="url(#paint1_linear)"/>
<path d="M8.79731 20.6115C10.8454 20.6115 12.5057 18.8869 12.5057 16.7594C12.5057 14.6319 10.8454 12.9072 8.79731 12.9072C6.74919 12.9072 5.08887 14.6319 5.08887 16.7594C5.08887 18.8869 6.74919 20.6115 8.79731 20.6115Z" fill="#546EE8"/>
<path d="M24.1072 30.4646L30.5319 26.6124C29.0371 23.9191 22.2861 11.7764 22.2861 11.7764L15.8613 15.6285C15.8613 15.6285 22.6124 27.7713 24.1072 30.4646Z" fill="url(#paint2_linear)"/>
<path d="M19.0756 17.5569C21.1237 17.5569 22.7841 15.8322 22.7841 13.7047C22.7841 11.5772 21.1237 9.85254 19.0756 9.85254C17.0275 9.85254 15.3672 11.5772 15.3672 13.7047C15.3672 15.8322 17.0275 17.5569 19.0756 17.5569Z" fill="#546EE8"/>
<defs>
<linearGradient id="paint0_linear" x1="0" y1="24.4691" x2="16.4908" y2="24.4691" gradientUnits="userSpaceOnUse">
<stop offset="0.0732" stop-color="#546EE8" stop-opacity="0"/>
<stop offset="1" stop-color="#546EE8" stop-opacity="0.7"/>
</linearGradient>
<linearGradient id="paint1_linear" x1="17.086" y1="1.96755" x2="8.36147" y2="16.5146" gradientUnits="userSpaceOnUse">
<stop offset="0.0732" stop-color="#546EE8" stop-opacity="0"/>
<stop offset="1" stop-color="#546EE8" stop-opacity="0.7"/>
</linearGradient>
<linearGradient id="paint2_linear" x1="27.2645" y1="28.5564" x2="18.5401" y2="14.0093" gradientUnits="userSpaceOnUse">
<stop offset="0.0732" stop-color="#546EE8" stop-opacity="0"/>
<stop offset="1" stop-color="#546EE8" stop-opacity="0.7"/>
</linearGradient>
</defs>
</svg>
